<svg width="141" height="15" viewBox="0 0 141 15" fill="none" xmlns="http://www.w3.org/2000/svg">
<g clip-path="url(#clip0_726_134)">
<path d="M4.97058 15C3.98355 15 3.01665 14.7857 2.07494 14.3622C1.13323 13.9388 0.448348 13.3214 0.0202967 12.5153L0.287199 12.1582C0.685035 12.9337 1.33467 13.5255 2.23105 13.9388C3.13248 14.352 4.04398 14.5561 4.97058 14.5561C5.76625 14.5561 6.47128 14.4235 7.08062 14.1531C7.68996 13.8827 8.16837 13.5153 8.51585 13.0459C8.86333 12.5765 9.03455 12.051 9.03455 11.4694C9.03455 10.8878 8.88851 10.4235 8.59139 10.0357C8.29427 9.64796 7.91154 9.32143 7.44321 9.06123C6.96983 8.80102 6.29502 8.47449 5.4087 8.08674L4.78929 7.81633C3.58067 7.28061 2.65911 6.83163 2.01451 6.47449C1.36992 6.11735 0.876399 5.71939 0.523886 5.27551C0.171373 4.83163 -0.00488281 4.31123 -0.00488281 3.69898C-0.00488281 2.96939 0.221732 2.32143 0.679999 1.7602C1.13827 1.19898 1.74257 0.765306 2.49292 0.459184C3.24327 0.153061 4.05405 0 4.92526 0C5.9274 0 6.86911 0.229592 7.75543 0.693878C8.63671 1.15816 9.27124 1.78571 9.65396 2.57653L9.36692 2.93367C8.9993 2.15816 8.39499 1.55102 7.554 1.10714C6.713 0.668368 5.85186 0.44898 4.97058 0.44898C4.23534 0.44898 3.56557 0.576531 2.97133 0.831633C2.3771 1.08673 1.90876 1.43367 1.58142 1.87245C1.24905 2.31122 1.08287 2.80102 1.08287 3.33674C1.08287 3.87245 1.22388 4.30102 1.50085 4.65816C1.77782 5.01531 2.15048 5.32653 2.61882 5.58674C3.08212 5.84694 3.77204 6.17347 4.68354 6.56123L5.56985 6.94388C6.6425 7.42347 7.48853 7.83674 8.09787 8.19898C8.70721 8.56123 9.20073 8.96939 9.56835 9.42857C9.93597 9.89286 10.1223 10.4337 10.1223 11.0612C10.1223 11.75 9.91079 12.3929 9.49282 13C9.07484 13.602 8.47053 14.0918 7.68996 14.4541C6.9094 14.8214 6.00294 15.0051 4.97058 15.0051V15Z" fill="#1D1D1B"/>
<path d="M18.2548 0L24.6655 14.8673H23.472L21.6137 10.5918H13.9441L12.0002 14.8673H11.5117L18.2548 0ZM14.1455 10.1429H21.4375L17.8771 1.90306L14.1405 10.1429H14.1455Z" fill="#1D1D1B"/>
<path d="M38.8669 0.132812H39.9698V14.8675H38.8669V1.22975L33.695 12.9593L27.8182 1.03077V14.8675H27.375V0.132812H28.6138L34.0274 11.1226L38.8669 0.132812Z" fill="#1D1D1B"/>
<path d="M46.0081 0.132812V14.8675H44.9053V0.132812H46.0081Z" fill="#1D1D1B"/>
<path d="M61.8059 13.3114C61.952 14.0818 62.0577 14.5971 62.1131 14.8675H61.0103C60.9347 14.5716 60.8541 14.1736 60.7685 13.6787C60.3405 11.7093 60.1491 10.8063 60.1944 10.9695C60.0182 10.0614 59.575 9.36751 58.8599 8.88792C58.1448 8.40832 57.2887 8.17363 56.2866 8.17363H52.0212V14.8675H50.9385V0.132812H57.3038C58.3513 0.132812 59.2326 0.331792 59.9578 0.724649C60.6779 1.12261 61.2117 1.62771 61.5592 2.24506C61.9067 2.86241 62.0779 3.49506 62.0779 4.13792C62.0779 4.98996 61.7908 5.78587 61.2167 6.53588C60.6426 7.28077 59.8016 7.77567 58.6988 8.01547C59.434 8.20934 60.0232 8.57669 60.4664 9.11241C60.9095 9.64812 61.1966 10.2604 61.3275 10.9491C61.5038 11.7553 61.6649 12.541 61.816 13.3114H61.8059ZM52.0162 7.72465H56.9211C58.0693 7.72465 59.0009 7.42873 59.716 6.83179C60.4311 6.23485 60.8088 5.33179 60.8541 4.12261C60.8995 2.94404 60.547 2.06138 59.8067 1.46955C59.0614 0.877711 58.0995 0.586894 56.9211 0.586894H52.0162V7.72465Z" fill="#1D1D1B"/>
<path d="M71.8622 0L78.2679 14.8673H77.0744L75.2161 10.5918H67.5515L65.6076 14.8673H65.1191L71.8622 0ZM67.7529 10.1429H75.0449L71.4896 1.90306L67.7529 10.1429Z" fill="#1D1D1B"/>
<path d="M97.7569 0.132812H98.8597V14.8675H97.7569V7.74506H88.8081V14.8624H87.7002V0.132812H88.8081V7.30118H97.7569V0.132812Z" fill="#1D1D1B"/>
<path d="M107.859 0L114.265 14.8673H113.071L111.213 10.5918H103.549L101.605 14.8673H101.116L107.859 0ZM103.75 10.1429H111.042L107.487 1.90306L103.75 10.1429Z" fill="#1D1D1B"/>
<path d="M122.881 0L129.286 14.8673H128.093L126.235 10.5918H118.565L116.621 14.8673H116.138L122.881 0ZM118.771 10.1429H126.063L122.508 1.90306L118.771 10.1429Z" fill="#1D1D1B"/>
<path d="M135.853 15C134.866 15 133.899 14.7857 132.958 14.3622C132.016 13.9388 131.331 13.3214 130.903 12.5153L131.17 12.1582C131.568 12.9337 132.217 13.5255 133.114 13.9388C134.01 14.352 134.927 14.5561 135.853 14.5561C136.649 14.5561 137.354 14.4235 137.963 14.1531C138.573 13.8827 139.051 13.5153 139.399 13.0459C139.746 12.5765 139.917 12.051 139.917 11.4694C139.917 10.8878 139.771 10.4235 139.474 10.0357C139.177 9.64796 138.794 9.32143 138.326 9.06123C137.853 8.80102 137.178 8.47449 136.292 8.08674L135.672 7.81633C134.463 7.28061 133.542 6.83163 132.897 6.47449C132.258 6.11735 131.759 5.71939 131.407 5.27551C131.054 4.83674 130.878 4.31123 130.878 3.69898C130.878 2.96939 131.105 2.32143 131.563 1.7602C132.021 1.19898 132.625 0.765306 133.376 0.459184C134.126 0.153061 134.937 0 135.808 0C136.81 0 137.752 0.229592 138.638 0.693878C139.525 1.15816 140.154 1.78571 140.542 2.57653L140.255 2.93367C139.887 2.15816 139.283 1.55102 138.442 1.10714C137.601 0.668368 136.74 0.44898 135.858 0.44898C135.123 0.44898 134.453 0.576531 133.859 0.831633C133.265 1.08673 132.797 1.43367 132.469 1.87245C132.137 2.31122 131.971 2.80102 131.971 3.33674C131.971 3.87245 132.112 4.30102 132.389 4.65816C132.671 5.01531 133.038 5.32653 133.507 5.58674C133.97 5.84694 134.66 6.17347 135.571 6.56123L136.453 6.94388C137.525 7.42347 138.371 7.83674 138.986 8.19898C139.595 8.55612 140.089 8.96939 140.456 9.42857C140.824 9.89286 141.01 10.4337 141.01 11.0612C141.01 11.75 140.799 12.3929 140.381 13C139.963 13.6071 139.358 14.0918 138.578 14.4541C137.797 14.8163 136.891 15.0051 135.858 15.0051L135.853 15Z" fill="#1D1D1B"/>
</g>
<defs>
<clipPath id="clip0_726_134">
<rect width="141" height="15" fill="white"/>
</clipPath>
</defs>
</svg>
