<svg width="213" height="130" viewBox="0 0 213 130" fill="none" xmlns="http://www.w3.org/2000/svg">
<path d="M44.095 129.152C53.055 129.152 60.927 127.616 67.711 124.544C74.495 121.344 79.679 117.184 83.263 112.064C86.975 106.816 88.831 101.248 88.831 95.3602C88.831 89.9842 87.231 85.3122 84.031 81.3442C80.831 77.3762 76.543 73.8562 71.167 70.7842C65.919 67.7122 58.623 64.1282 49.279 60.0322L41.599 56.7682C33.663 53.4402 27.647 50.6882 23.551 48.5122C19.583 46.2082 16.383 43.5202 13.951 40.4482C11.519 37.3762 10.303 33.6002 10.303 29.1202C10.303 24.5122 11.711 20.3522 14.527 16.6402C17.471 12.8002 21.503 9.79221 26.623 7.61621C31.871 5.4402 37.695 4.3522 44.095 4.3522C51.775 4.3522 59.263 6.27221 66.559 10.1122C73.855 13.8242 79.103 19.0082 82.303 25.6642L84.799 22.5922C81.471 15.8082 75.967 10.4322 68.287 6.46421C60.607 2.49621 52.415 0.512207 43.711 0.512207C36.159 0.512207 29.119 1.85621 22.591 4.54421C16.063 7.10421 10.815 10.8162 6.84702 15.6802C2.87902 20.4162 0.89502 25.9202 0.89502 32.1922C0.89502 37.4402 2.43102 41.9842 5.50302 45.8242C8.57502 49.5362 12.863 52.9282 18.367 56.0002C23.999 59.0722 32.063 62.9122 42.559 67.5202L47.935 69.8242C55.615 73.1522 61.503 75.9682 65.599 78.2722C69.695 80.4482 73.023 83.2002 75.583 86.5282C78.143 89.8562 79.423 93.9522 79.423 98.8162C79.423 103.808 77.887 108.352 74.815 112.448C71.871 116.416 67.711 119.552 62.335 121.856C57.087 124.16 51.007 125.312 44.095 125.312C36.031 125.312 28.095 123.584 20.287 120.128C12.479 116.544 6.84702 111.424 3.39102 104.768L1.08702 107.84C4.79902 114.752 10.751 120.064 18.943 123.776C27.135 127.36 35.519 129.152 44.095 129.152Z" fill="black"/>
<path d="M203.292 1.6642H212.892V128H203.292V66.9442H125.532V128H115.932V1.6642H125.532V63.1042H203.292V1.6642Z" fill="black"/>
</svg>
